<?xml version="1.0" encoding="utf-8"?>
<!-- Generator: Adobe Illustrator 25.0.1, SVG Export Plug-In . SVG Version: 6.00 Build 0)  -->
<svg version="1.1" id="Layer_1" xmlns="http://www.w3.org/2000/svg" xmlns:xlink="http://www.w3.org/1999/xlink" x="0px" y="0px"
	 viewBox="0 0 29.9 28.5" style="enable-background:new 0 0 29.9 28.5;" xml:space="preserve">
<style type="text/css">
	.st0{fill:#FFFFFF;}
</style>
<path class="st0" d="M15,1l2.8,8.7c0.3,0.8,1,1.3,1.9,1.4h9.1l-7.4,5.4c-0.7,0.5-1,1.4-0.7,2.2l2.8,8.7L16.1,22
	c-0.7-0.5-1.6-0.5-2.3,0l-7.4,5.4l2.8-8.7c0.3-0.8,0-1.7-0.7-2.2l-7.4-5.4h9.2c0.8,0,1.6-0.6,1.9-1.4L15,1 M15,0
	c-0.4,0-0.8,0.3-0.9,0.7l-2.9,8.8c-0.1,0.4-0.5,0.7-0.9,0.7H1c-0.5,0.1-1,0.5-0.9,1.1c0,0.3,0.1,0.5,0.3,0.7L8,17.3
	c0.3,0.3,0.5,0.7,0.4,1.1l-2.9,8.8c-0.1,0.5,0.2,1.1,0.7,1.2c0.1,0,0.2,0,0.2,0c0.2,0,0.4-0.1,0.6-0.2l7.5-5.4
	c0.3-0.2,0.8-0.2,1.1,0l7.5,5.4c0.2,0.1,0.4,0.2,0.6,0.2c0.6,0,1-0.5,1-1c0-0.1,0-0.2,0-0.2l-2.9-8.8c-0.1-0.4,0-0.8,0.3-1.1
	l7.5-5.4c0.4-0.4,0.5-1,0.1-1.4c-0.2-0.2-0.4-0.3-0.6-0.3h-9.3c-0.4,0-0.8-0.3-0.9-0.7L16,0.7C15.7,0.3,15.4,0,15,0L15,0z"/>
</svg>
